<?xml version="1.0" encoding="UTF-8" standalone="no"?>
<!DOCTYPE svg PUBLIC "-//W3C//DTD SVG 1.1//EN"
 "http://www.w3.org/Graphics/SVG/1.1/DTD/svg11.dtd">
<!-- Generated by graphviz version 2.40.1 (20161225.0304)
 -->
<!-- Title: dependencies Pages: 1 -->
<svg width="628pt" height="284pt"
 viewBox="0.00 0.00 628.00 284.00" xmlns="http://www.w3.org/2000/svg" xmlns:xlink="http://www.w3.org/1999/xlink">
<g id="graph0" class="graph" transform="scale(1 1) rotate(0) translate(4 280)">
<title>dependencies</title>
<polygon fill="#ffffff" stroke="transparent" points="-4,4 -4,-280 624,-280 624,4 -4,4"/>
<text text-anchor="start" x="289.0091" y="-42.4" font-family="sans-serif" font-weight="bold" font-size="14.00" fill="#000000">Legend</text>
<polygon fill="#ffffb3" stroke="transparent" points="76,-10 76,-30 96,-30 96,-10 76,-10"/>
<text text-anchor="start" x="99.629" y="-15.4" font-family="sans-serif" font-size="14.00" fill="#000000"> &#160;Declarations</text>
<polygon fill="#8dd3c7" stroke="transparent" points="189,-10 189,-30 209,-30 209,-10 189,-10"/>
<text text-anchor="start" x="212.7251" y="-15.4" font-family="sans-serif" font-size="14.00" fill="#000000"> &#160;Module</text>
<polygon fill="#80b1d3" stroke="transparent" points="275,-10 275,-30 295,-30 295,-10 275,-10"/>
<text text-anchor="start" x="298.7812" y="-15.4" font-family="sans-serif" font-size="14.00" fill="#000000"> &#160;Bootstrap</text>
<polygon fill="#fdb462" stroke="transparent" points="372,-10 372,-30 392,-30 392,-10 372,-10"/>
<text text-anchor="start" x="395.6732" y="-15.4" font-family="sans-serif" font-size="14.00" fill="#000000"> &#160;Providers</text>
<polygon fill="#fb8072" stroke="transparent" points="468,-10 468,-30 488,-30 488,-10 468,-10"/>
<text text-anchor="start" x="491.7258" y="-15.4" font-family="sans-serif" font-size="14.00" fill="#000000"> &#160;Exports</text>
<g id="clust1" class="cluster">
<title>cluster_OffererModule</title>
<polygon fill="none" stroke="#000000" stroke-dasharray="1,5" points="8,-70 8,-268 612,-268 612,-70 8,-70"/>
</g>
<g id="clust2" class="cluster">
<title>cluster_OffererModule_declarations</title>
<polygon fill="none" stroke="#000000" points="336,-78 336,-130 604,-130 604,-78 336,-78"/>
</g>
<g id="clust5" class="cluster">
<title>cluster_OffererModule_imports</title>
<polygon fill="none" stroke="#000000" points="16,-78 16,-130 328,-130 328,-78 16,-78"/>
</g>
<g id="clust6" class="cluster">
<title>cluster_OffererModule_exports</title>
<polygon fill="none" stroke="#000000" points="155,-208 155,-260 460,-260 460,-208 155,-208"/>
</g>
<!-- CreateComponent -->
<g id="node1" class="node">
<title>CreateComponent</title>
<polygon fill="#ffffb3" stroke="#000000" points="595.8641,-122 478.1359,-122 478.1359,-86 595.8641,-86 595.8641,-122"/>
<text text-anchor="middle" x="537" y="-99.8" font-family="Times,serif" font-size="14.00" fill="#000000">CreateComponent</text>
</g>
<!-- OffererModule -->
<g id="node3" class="node">
<title>OffererModule</title>
<polygon fill="#8dd3c7" stroke="#000000" points="364.2284,-187 361.2284,-191 340.2284,-191 337.2284,-187 263.7716,-187 263.7716,-151 364.2284,-151 364.2284,-187"/>
<text text-anchor="middle" x="314" y="-164.8" font-family="Times,serif" font-size="14.00" fill="#000000">OffererModule</text>
</g>
<!-- CreateComponent&#45;&gt;OffererModule -->
<g id="edge1" class="edge">
<title>CreateComponent&#45;&gt;OffererModule</title>
<path fill="none" stroke="#000000" d="M537,-122.1061C537,-141.3391 537,-169 537,-169 537,-169 374.3236,-169 374.3236,-169"/>
<polygon fill="#000000" stroke="#000000" points="374.3236,-165.5001 364.3236,-169 374.3236,-172.5001 374.3236,-165.5001"/>
</g>
<!-- HomeComponent -->
<g id="node2" class="node">
<title>HomeComponent</title>
<polygon fill="#ffffb3" stroke="#000000" points="459.5451,-122 344.4549,-122 344.4549,-86 459.5451,-86 459.5451,-122"/>
<text text-anchor="middle" x="402" y="-99.8" font-family="Times,serif" font-size="14.00" fill="#000000">HomeComponent</text>
</g>
<!-- HomeComponent&#45;&gt;OffererModule -->
<g id="edge2" class="edge">
<title>HomeComponent&#45;&gt;OffererModule</title>
<path fill="none" stroke="#000000" d="M354.296,-122.1061C354.296,-122.1061 354.296,-140.991 354.296,-140.991"/>
<polygon fill="#000000" stroke="#000000" points="350.796,-140.9909 354.296,-150.991 357.796,-140.991 350.796,-140.9909"/>
</g>
<!-- CreateComponent  -->
<g id="node6" class="node">
<title>CreateComponent </title>
<polygon fill="#fb8072" stroke="#000000" points="451.8645,-252 330.1355,-252 330.1355,-216 451.8645,-216 451.8645,-252"/>
<text text-anchor="middle" x="391" y="-229.8" font-family="Times,serif" font-size="14.00" fill="#000000">CreateComponent </text>
</g>
<!-- OffererModule&#45;&gt;CreateComponent  -->
<g id="edge5" class="edge">
<title>OffererModule&#45;&gt;CreateComponent </title>
<path fill="none" stroke="#000000" stroke-dasharray="5,2" d="M347.341,-187.1061C347.341,-187.1061 347.341,-205.991 347.341,-205.991"/>
<polygon fill="#000000" stroke="#000000" points="343.8411,-205.9909 347.341,-215.991 350.8411,-205.991 343.8411,-205.9909"/>
</g>
<!-- OffererRoutingModule  -->
<g id="node7" class="node">
<title>OffererRoutingModule </title>
<polygon fill="#fb8072" stroke="#000000" points="312.8462,-252 163.1538,-252 163.1538,-216 312.8462,-216 312.8462,-252"/>
<text text-anchor="middle" x="238" y="-229.8" font-family="Times,serif" font-size="14.00" fill="#000000">OffererRoutingModule </text>
</g>
<!-- OffererModule&#45;&gt;OffererRoutingModule  -->
<g id="edge6" class="edge">
<title>OffererModule&#45;&gt;OffererRoutingModule </title>
<path fill="none" stroke="#000000" stroke-dasharray="5,2" d="M288.1545,-187.1061C288.1545,-187.1061 288.1545,-205.991 288.1545,-205.991"/>
<polygon fill="#000000" stroke="#000000" points="284.6545,-205.9909 288.1545,-215.991 291.6545,-205.991 284.6545,-205.9909"/>
</g>
<!-- OffererRoutingModule -->
<g id="node4" class="node">
<title>OffererRoutingModule</title>
<polygon fill="#8dd3c7" stroke="#000000" points="319.8459,-122 316.8459,-126 295.8459,-126 292.8459,-122 174.1541,-122 174.1541,-86 319.8459,-86 319.8459,-122"/>
<text text-anchor="middle" x="247" y="-99.8" font-family="Times,serif" font-size="14.00" fill="#000000">OffererRoutingModule</text>
</g>
<!-- OffererRoutingModule&#45;&gt;OffererModule -->
<g id="edge3" class="edge">
<title>OffererRoutingModule&#45;&gt;OffererModule</title>
<path fill="none" stroke="#000000" d="M291.7795,-122.1061C291.7795,-122.1061 291.7795,-140.991 291.7795,-140.991"/>
<polygon fill="#000000" stroke="#000000" points="288.2795,-140.9909 291.7795,-150.991 295.2795,-140.991 288.2795,-140.9909"/>
</g>
<!-- ConvocatoryModule -->
<g id="node5" class="node">
<title>ConvocatoryModule</title>
<polygon fill="#8dd3c7" stroke="#000000" points="155.8669,-122 152.8669,-126 131.8669,-126 128.8669,-122 24.1331,-122 24.1331,-86 155.8669,-86 155.8669,-122"/>
<text text-anchor="middle" x="90" y="-99.8" font-family="Times,serif" font-size="14.00" fill="#000000">ConvocatoryModule</text>
</g>
<!-- ConvocatoryModule&#45;&gt;OffererModule -->
<g id="edge4" class="edge">
<title>ConvocatoryModule&#45;&gt;OffererModule</title>
<path fill="none" stroke="#000000" d="M90,-122.1061C90,-141.3391 90,-169 90,-169 90,-169 253.73,-169 253.73,-169"/>
<polygon fill="#000000" stroke="#000000" points="253.7301,-172.5001 263.73,-169 253.73,-165.5001 253.7301,-172.5001"/>
</g>
</g>
</svg>
