<?xml version="1.0" encoding="UTF-8" standalone="no"?>
<!DOCTYPE svg PUBLIC "-//W3C//DTD SVG 1.1//EN"
 "http://www.w3.org/Graphics/SVG/1.1/DTD/svg11.dtd">
<!-- Generated by graphviz version 2.40.1 (20161225.0304)
 -->
<!-- Title: dependencies Pages: 1 -->
<svg width="504pt" height="284pt"
 viewBox="0.00 0.00 504.00 284.00" xmlns="http://www.w3.org/2000/svg" xmlns:xlink="http://www.w3.org/1999/xlink">
<g id="graph0" class="graph" transform="scale(1 1) rotate(0) translate(4 280)">
<title>dependencies</title>
<polygon fill="#ffffff" stroke="transparent" points="-4,4 -4,-280 500,-280 500,4 -4,4"/>
<text text-anchor="start" x="227.0091" y="-42.4" font-family="sans-serif" font-weight="bold" font-size="14.00" fill="#000000">Legend</text>
<polygon fill="#ffffb3" stroke="transparent" points="14,-10 14,-30 34,-30 34,-10 14,-10"/>
<text text-anchor="start" x="37.629" y="-15.4" font-family="sans-serif" font-size="14.00" fill="#000000"> &#160;Declarations</text>
<polygon fill="#8dd3c7" stroke="transparent" points="127,-10 127,-30 147,-30 147,-10 127,-10"/>
<text text-anchor="start" x="150.7251" y="-15.4" font-family="sans-serif" font-size="14.00" fill="#000000"> &#160;Module</text>
<polygon fill="#80b1d3" stroke="transparent" points="213,-10 213,-30 233,-30 233,-10 213,-10"/>
<text text-anchor="start" x="236.7812" y="-15.4" font-family="sans-serif" font-size="14.00" fill="#000000"> &#160;Bootstrap</text>
<polygon fill="#fdb462" stroke="transparent" points="310,-10 310,-30 330,-30 330,-10 310,-10"/>
<text text-anchor="start" x="333.6732" y="-15.4" font-family="sans-serif" font-size="14.00" fill="#000000"> &#160;Providers</text>
<polygon fill="#fb8072" stroke="transparent" points="406,-10 406,-30 426,-30 426,-10 406,-10"/>
<text text-anchor="start" x="429.7258" y="-15.4" font-family="sans-serif" font-size="14.00" fill="#000000"> &#160;Exports</text>
<g id="clust1" class="cluster">
<title>cluster_InputFieldsModule</title>
<polygon fill="none" stroke="#000000" stroke-dasharray="1,5" points="80,-70 80,-268 416,-268 416,-70 80,-70"/>
</g>
<g id="clust2" class="cluster">
<title>cluster_InputFieldsModule_declarations</title>
<polygon fill="none" stroke="#000000" points="92,-78 92,-130 404,-130 404,-78 92,-78"/>
</g>
<g id="clust6" class="cluster">
<title>cluster_InputFieldsModule_exports</title>
<polygon fill="none" stroke="#000000" points="88,-208 88,-260 408,-260 408,-208 88,-208"/>
</g>
<!-- FileUploadComponent -->
<g id="node1" class="node">
<title>FileUploadComponent</title>
<polygon fill="#ffffb3" stroke="#000000" points="396.323,-122 251.677,-122 251.677,-86 396.323,-86 396.323,-122"/>
<text text-anchor="middle" x="324" y="-99.8" font-family="Times,serif" font-size="14.00" fill="#000000">FileUploadComponent</text>
</g>
<!-- InputFieldsModule -->
<g id="node3" class="node">
<title>InputFieldsModule</title>
<polygon fill="#8dd3c7" stroke="#000000" points="229.8244,-187 226.8244,-191 205.8244,-191 202.8244,-187 106.1756,-187 106.1756,-151 229.8244,-151 229.8244,-187"/>
<text text-anchor="middle" x="168" y="-164.8" font-family="Times,serif" font-size="14.00" fill="#000000">InputFieldsModule</text>
</g>
<!-- FileUploadComponent&#45;&gt;InputFieldsModule -->
<g id="edge1" class="edge">
<title>FileUploadComponent&#45;&gt;InputFieldsModule</title>
<path fill="none" stroke="#000000" d="M348.1371,-122.0225C348.1371,-139.3734 348.1371,-163 348.1371,-163 348.1371,-163 239.7409,-163 239.7409,-163"/>
<polygon fill="#000000" stroke="#000000" points="239.741,-159.5001 229.7409,-163 239.7409,-166.5001 239.741,-159.5001"/>
</g>
<!-- AddFieldComponent -->
<g id="node2" class="node">
<title>AddFieldComponent</title>
<polygon fill="#ffffb3" stroke="#000000" points="234.2176,-122 99.7824,-122 99.7824,-86 234.2176,-86 234.2176,-122"/>
<text text-anchor="middle" x="167" y="-99.8" font-family="Times,serif" font-size="14.00" fill="#000000">AddFieldComponent</text>
</g>
<!-- AddFieldComponent&#45;&gt;InputFieldsModule -->
<g id="edge2" class="edge">
<title>AddFieldComponent&#45;&gt;InputFieldsModule</title>
<path fill="none" stroke="#000000" d="M168,-122.1061C168,-122.1061 168,-140.991 168,-140.991"/>
<polygon fill="#000000" stroke="#000000" points="164.5001,-140.9909 168,-150.991 171.5001,-140.991 164.5001,-140.9909"/>
</g>
<!-- FileUploadComponent  -->
<g id="node4" class="node">
<title>FileUploadComponent </title>
<polygon fill="#fb8072" stroke="#000000" points="399.8227,-252 252.1773,-252 252.1773,-216 399.8227,-216 399.8227,-252"/>
<text text-anchor="middle" x="326" y="-229.8" font-family="Times,serif" font-size="14.00" fill="#000000">FileUploadComponent </text>
</g>
<!-- InputFieldsModule&#45;&gt;FileUploadComponent  -->
<g id="edge3" class="edge">
<title>InputFieldsModule&#45;&gt;FileUploadComponent </title>
<path fill="none" stroke="#000000" stroke-dasharray="5,2" d="M229.8015,-175C264.1853,-175 300.1129,-175 300.1129,-175 300.1129,-175 300.1129,-205.9775 300.1129,-205.9775"/>
<polygon fill="#000000" stroke="#000000" points="296.613,-205.9774 300.1129,-215.9775 303.613,-205.9775 296.613,-205.9774"/>
</g>
<!-- AddFieldComponent  -->
<g id="node5" class="node">
<title>AddFieldComponent </title>
<polygon fill="#fb8072" stroke="#000000" points="233.7177,-252 96.2823,-252 96.2823,-216 233.7177,-216 233.7177,-252"/>
<text text-anchor="middle" x="165" y="-229.8" font-family="Times,serif" font-size="14.00" fill="#000000">AddFieldComponent </text>
</g>
<!-- InputFieldsModule&#45;&gt;AddFieldComponent  -->
<g id="edge4" class="edge">
<title>InputFieldsModule&#45;&gt;AddFieldComponent </title>
<path fill="none" stroke="#000000" stroke-dasharray="5,2" d="M168,-187.1061C168,-187.1061 168,-205.991 168,-205.991"/>
<polygon fill="#000000" stroke="#000000" points="164.5001,-205.9909 168,-215.991 171.5001,-205.991 164.5001,-205.9909"/>
</g>
</g>
</svg>
