<?xml version="1.0" encoding="UTF-8" standalone="no"?>
<!DOCTYPE svg PUBLIC "-//W3C//DTD SVG 1.1//EN"
 "http://www.w3.org/Graphics/SVG/1.1/DTD/svg11.dtd">
<!-- Generated by graphviz version 2.40.1 (20161225.0304)
 -->
<!-- Title: dependencies Pages: 1 -->
<svg width="3146pt" height="284pt"
 viewBox="0.00 0.00 3146.00 284.00" xmlns="http://www.w3.org/2000/svg" xmlns:xlink="http://www.w3.org/1999/xlink">
<g id="graph0" class="graph" transform="scale(1 1) rotate(0) translate(4 280)">
<title>dependencies</title>
<polygon fill="#ffffff" stroke="transparent" points="-4,4 -4,-280 3142,-280 3142,4 -4,4"/>
<text text-anchor="start" x="1548.0091" y="-42.4" font-family="sans-serif" font-weight="bold" font-size="14.00" fill="#000000">Legend</text>
<polygon fill="#ffffb3" stroke="transparent" points="1335,-10 1335,-30 1355,-30 1355,-10 1335,-10"/>
<text text-anchor="start" x="1358.629" y="-15.4" font-family="sans-serif" font-size="14.00" fill="#000000"> &#160;Declarations</text>
<polygon fill="#8dd3c7" stroke="transparent" points="1448,-10 1448,-30 1468,-30 1468,-10 1448,-10"/>
<text text-anchor="start" x="1471.7251" y="-15.4" font-family="sans-serif" font-size="14.00" fill="#000000"> &#160;Module</text>
<polygon fill="#80b1d3" stroke="transparent" points="1534,-10 1534,-30 1554,-30 1554,-10 1534,-10"/>
<text text-anchor="start" x="1557.7812" y="-15.4" font-family="sans-serif" font-size="14.00" fill="#000000"> &#160;Bootstrap</text>
<polygon fill="#fdb462" stroke="transparent" points="1631,-10 1631,-30 1651,-30 1651,-10 1631,-10"/>
<text text-anchor="start" x="1654.6732" y="-15.4" font-family="sans-serif" font-size="14.00" fill="#000000"> &#160;Providers</text>
<polygon fill="#fb8072" stroke="transparent" points="1727,-10 1727,-30 1747,-30 1747,-10 1727,-10"/>
<text text-anchor="start" x="1750.7258" y="-15.4" font-family="sans-serif" font-size="14.00" fill="#000000"> &#160;Exports</text>
<g id="clust1" class="cluster">
<title>cluster_ApplicantModule</title>
<polygon fill="none" stroke="#000000" stroke-dasharray="1,5" points="8,-70 8,-268 3130,-268 3130,-70 8,-70"/>
</g>
<g id="clust2" class="cluster">
<title>cluster_ApplicantModule_declarations</title>
<polygon fill="none" stroke="#000000" points="770,-78 770,-130 3122,-130 3122,-78 770,-78"/>
</g>
<g id="clust15" class="cluster">
<title>cluster_ApplicantModule_imports</title>
<polygon fill="none" stroke="#000000" points="436,-78 436,-130 762,-130 762,-78 436,-78"/>
</g>
<g id="clust16" class="cluster">
<title>cluster_ApplicantModule_exports</title>
<polygon fill="none" stroke="#000000" points="1607,-208 1607,-260 1745,-260 1745,-208 1607,-208"/>
</g>
<g id="clust18" class="cluster">
<title>cluster_ApplicantModule_providers</title>
<polygon fill="none" stroke="#000000" points="16,-78 16,-130 428,-130 428,-78 16,-78"/>
</g>
<!-- ValidateComponent -->
<g id="node1" class="node">
<title>ValidateComponent</title>
<polygon fill="#ffffb3" stroke="#000000" points="3114.2548,-122 2985.7452,-122 2985.7452,-86 3114.2548,-86 3114.2548,-122"/>
<text text-anchor="middle" x="3050" y="-99.8" font-family="Times,serif" font-size="14.00" fill="#000000">ValidateComponent</text>
</g>
<!-- ApplicantModule -->
<g id="node13" class="node">
<title>ApplicantModule</title>
<polygon fill="#8dd3c7" stroke="#000000" points="1733.2577,-187 1730.2577,-191 1709.2577,-191 1706.2577,-187 1618.7423,-187 1618.7423,-151 1733.2577,-151 1733.2577,-187"/>
<text text-anchor="middle" x="1676" y="-164.8" font-family="Times,serif" font-size="14.00" fill="#000000">ApplicantModule</text>
</g>
<!-- ValidateComponent&#45;&gt;ApplicantModule -->
<g id="edge1" class="edge">
<title>ValidateComponent&#45;&gt;ApplicantModule</title>
<path fill="none" stroke="#000000" d="M3050,-122.3228C3050,-145.6602 3050,-183 3050,-183 3050,-183 1743.2898,-183 1743.2898,-183"/>
<polygon fill="#000000" stroke="#000000" points="1743.2898,-179.5001 1733.2898,-183 1743.2897,-186.5001 1743.2898,-179.5001"/>
</g>
<!-- CreateComponent -->
<g id="node2" class="node">
<title>CreateComponent</title>
<polygon fill="#ffffb3" stroke="#000000" points="2967.8641,-122 2850.1359,-122 2850.1359,-86 2967.8641,-86 2967.8641,-122"/>
<text text-anchor="middle" x="2909" y="-99.8" font-family="Times,serif" font-size="14.00" fill="#000000">CreateComponent</text>
</g>
<!-- CreateComponent&#45;&gt;ApplicantModule -->
<g id="edge2" class="edge">
<title>CreateComponent&#45;&gt;ApplicantModule</title>
<path fill="none" stroke="#000000" d="M2909,-122.2921C2909,-144.2057 2909,-178 2909,-178 2909,-178 1743.4062,-178 1743.4062,-178"/>
<polygon fill="#000000" stroke="#000000" points="1743.4062,-174.5001 1733.4062,-178 1743.4061,-181.5001 1743.4062,-174.5001"/>
</g>
<!-- UploadDocumentsComponent -->
<g id="node3" class="node">
<title>UploadDocumentsComponent</title>
<polygon fill="#ffffb3" stroke="#000000" points="2832.3061,-122 2645.6939,-122 2645.6939,-86 2832.3061,-86 2832.3061,-122"/>
<text text-anchor="middle" x="2739" y="-99.8" font-family="Times,serif" font-size="14.00" fill="#000000">UploadDocumentsComponent</text>
</g>
<!-- UploadDocumentsComponent&#45;&gt;ApplicantModule -->
<g id="edge3" class="edge">
<title>UploadDocumentsComponent&#45;&gt;ApplicantModule</title>
<path fill="none" stroke="#000000" d="M2739,-122.0267C2739,-142.7672 2739,-174 2739,-174 2739,-174 1743.5284,-174 1743.5284,-174"/>
<polygon fill="#000000" stroke="#000000" points="1743.5284,-170.5001 1733.5284,-174 1743.5284,-177.5001 1743.5284,-170.5001"/>
</g>
<!-- FormComponent -->
<g id="node4" class="node">
<title>FormComponent</title>
<polygon fill="#ffffb3" stroke="#000000" points="2627.6667,-122 2516.3333,-122 2516.3333,-86 2627.6667,-86 2627.6667,-122"/>
<text text-anchor="middle" x="2572" y="-99.8" font-family="Times,serif" font-size="14.00" fill="#000000">FormComponent</text>
</g>
<!-- FormComponent&#45;&gt;ApplicantModule -->
<g id="edge4" class="edge">
<title>FormComponent&#45;&gt;ApplicantModule</title>
<path fill="none" stroke="#000000" d="M2572,-122.1061C2572,-141.3391 2572,-169 2572,-169 2572,-169 1743.4118,-169 1743.4118,-169"/>
<polygon fill="#000000" stroke="#000000" points="1743.4119,-165.5001 1733.4118,-169 1743.4118,-172.5001 1743.4119,-165.5001"/>
</g>
<!-- DynamicFormComponent -->
<g id="node5" class="node">
<title>DynamicFormComponent</title>
<polygon fill="#ffffb3" stroke="#000000" points="2498.4832,-122 2335.5168,-122 2335.5168,-86 2498.4832,-86 2498.4832,-122"/>
<text text-anchor="middle" x="2417" y="-99.8" font-family="Times,serif" font-size="14.00" fill="#000000">DynamicFormComponent</text>
</g>
<!-- DynamicFormComponent&#45;&gt;ApplicantModule -->
<g id="edge5" class="edge">
<title>DynamicFormComponent&#45;&gt;ApplicantModule</title>
<path fill="none" stroke="#000000" d="M2417,-122.302C2417,-140.2699 2417,-165 2417,-165 2417,-165 1743.5284,-165 1743.5284,-165"/>
<polygon fill="#000000" stroke="#000000" points="1743.5285,-161.5001 1733.5284,-165 1743.5284,-168.5001 1743.5285,-161.5001"/>
</g>
<!-- DynamicFormQuestionComponent -->
<g id="node6" class="node">
<title>DynamicFormQuestionComponent</title>
<polygon fill="#ffffb3" stroke="#000000" points="2317.5307,-122 2104.4693,-122 2104.4693,-86 2317.5307,-86 2317.5307,-122"/>
<text text-anchor="middle" x="2211" y="-99.8" font-family="Times,serif" font-size="14.00" fill="#000000">DynamicFormQuestionComponent</text>
</g>
<!-- DynamicFormQuestionComponent&#45;&gt;ApplicantModule -->
<g id="edge6" class="edge">
<title>DynamicFormQuestionComponent&#45;&gt;ApplicantModule</title>
<path fill="none" stroke="#000000" d="M2211,-122.027C2211,-138.3976 2211,-160 2211,-160 2211,-160 1743.5083,-160 1743.5083,-160"/>
<polygon fill="#000000" stroke="#000000" points="1743.5083,-156.5001 1733.5083,-160 1743.5083,-163.5001 1743.5083,-156.5001"/>
</g>
<!-- HomeComponent -->
<g id="node7" class="node">
<title>HomeComponent</title>
<polygon fill="#ffffb3" stroke="#000000" points="2085.5451,-122 1970.4549,-122 1970.4549,-86 2085.5451,-86 2085.5451,-122"/>
<text text-anchor="middle" x="2028" y="-99.8" font-family="Times,serif" font-size="14.00" fill="#000000">HomeComponent</text>
</g>
<!-- HomeComponent&#45;&gt;ApplicantModule -->
<g id="edge7" class="edge">
<title>HomeComponent&#45;&gt;ApplicantModule</title>
<path fill="none" stroke="#000000" d="M2028,-122.1871C2028,-137.1824 2028,-156 2028,-156 2028,-156 1743.3383,-156 1743.3383,-156"/>
<polygon fill="#000000" stroke="#000000" points="1743.3383,-152.5001 1733.3383,-156 1743.3383,-159.5001 1743.3383,-152.5001"/>
</g>
<!-- PublishedToApplyListConvocatoryComponent -->
<g id="node8" class="node">
<title>PublishedToApplyListConvocatoryComponent</title>
<polygon fill="#ffffb3" stroke="#000000" points="1952.7007,-122 1671.2993,-122 1671.2993,-86 1952.7007,-86 1952.7007,-122"/>
<text text-anchor="middle" x="1812" y="-99.8" font-family="Times,serif" font-size="14.00" fill="#000000">PublishedToApplyListConvocatoryComponent</text>
</g>
<!-- PublishedToApplyListConvocatoryComponent&#45;&gt;ApplicantModule -->
<g id="edge8" class="edge">
<title>PublishedToApplyListConvocatoryComponent&#45;&gt;ApplicantModule</title>
<path fill="none" stroke="#000000" d="M1702.3892,-122.1061C1702.3892,-122.1061 1702.3892,-140.991 1702.3892,-140.991"/>
<polygon fill="#000000" stroke="#000000" points="1698.8893,-140.9909 1702.3892,-150.991 1705.8893,-140.991 1698.8893,-140.9909"/>
</g>
<!-- InscribedListConvocatoryComponent -->
<g id="node9" class="node">
<title>InscribedListConvocatoryComponent</title>
<polygon fill="#ffffb3" stroke="#000000" points="1653.5139,-122 1426.4861,-122 1426.4861,-86 1653.5139,-86 1653.5139,-122"/>
<text text-anchor="middle" x="1540" y="-99.8" font-family="Times,serif" font-size="14.00" fill="#000000">InscribedListConvocatoryComponent</text>
</g>
<!-- InscribedListConvocatoryComponent&#45;&gt;ApplicantModule -->
<g id="edge9" class="edge">
<title>InscribedListConvocatoryComponent&#45;&gt;ApplicantModule</title>
<path fill="none" stroke="#000000" d="M1636.189,-122.1061C1636.189,-122.1061 1636.189,-140.991 1636.189,-140.991"/>
<polygon fill="#000000" stroke="#000000" points="1632.6891,-140.9909 1636.189,-150.991 1639.6891,-140.991 1632.6891,-140.9909"/>
</g>
<!-- PlacesListConvocatoryComponent -->
<g id="node10" class="node">
<title>PlacesListConvocatoryComponent</title>
<polygon fill="#ffffb3" stroke="#000000" points="1408.6895,-122 1197.3105,-122 1197.3105,-86 1408.6895,-86 1408.6895,-122"/>
<text text-anchor="middle" x="1303" y="-99.8" font-family="Times,serif" font-size="14.00" fill="#000000">PlacesListConvocatoryComponent</text>
</g>
<!-- PlacesListConvocatoryComponent&#45;&gt;ApplicantModule -->
<g id="edge10" class="edge">
<title>PlacesListConvocatoryComponent&#45;&gt;ApplicantModule</title>
<path fill="none" stroke="#000000" d="M1303,-122.1871C1303,-137.1824 1303,-156 1303,-156 1303,-156 1608.5362,-156 1608.5362,-156"/>
<polygon fill="#000000" stroke="#000000" points="1608.5362,-159.5001 1618.5362,-156 1608.5362,-152.5001 1608.5362,-159.5001"/>
</g>
<!-- RejectPlaceComponent -->
<g id="node11" class="node">
<title>RejectPlaceComponent</title>
<polygon fill="#ffffb3" stroke="#000000" points="1179.9116,-122 1032.0884,-122 1032.0884,-86 1179.9116,-86 1179.9116,-122"/>
<text text-anchor="middle" x="1106" y="-99.8" font-family="Times,serif" font-size="14.00" fill="#000000">RejectPlaceComponent</text>
</g>
<!-- RejectPlaceComponent&#45;&gt;ApplicantModule -->
<g id="edge11" class="edge">
<title>RejectPlaceComponent&#45;&gt;ApplicantModule</title>
<path fill="none" stroke="#000000" d="M1106,-122.027C1106,-138.3976 1106,-160 1106,-160 1106,-160 1608.7364,-160 1608.7364,-160"/>
<polygon fill="#000000" stroke="#000000" points="1608.7365,-163.5001 1618.7364,-160 1608.7364,-156.5001 1608.7365,-163.5001"/>
</g>
<!-- PhaseToApplyConvocatoryComponent -->
<g id="node12" class="node">
<title>PhaseToApplyConvocatoryComponent</title>
<polygon fill="#ffffb3" stroke="#000000" points="1014.3556,-122 777.6444,-122 777.6444,-86 1014.3556,-86 1014.3556,-122"/>
<text text-anchor="middle" x="896" y="-99.8" font-family="Times,serif" font-size="14.00" fill="#000000">PhaseToApplyConvocatoryComponent</text>
</g>
<!-- PhaseToApplyConvocatoryComponent&#45;&gt;ApplicantModule -->
<g id="edge12" class="edge">
<title>PhaseToApplyConvocatoryComponent&#45;&gt;ApplicantModule</title>
<path fill="none" stroke="#000000" d="M896,-122.302C896,-140.2699 896,-165 896,-165 896,-165 1608.6447,-165 1608.6447,-165"/>
<polygon fill="#000000" stroke="#000000" points="1608.6448,-168.5001 1618.6447,-165 1608.6447,-161.5001 1608.6448,-168.5001"/>
</g>
<!-- CreateComponent  -->
<g id="node16" class="node">
<title>CreateComponent </title>
<polygon fill="#fb8072" stroke="#000000" points="1736.8645,-252 1615.1355,-252 1615.1355,-216 1736.8645,-216 1736.8645,-252"/>
<text text-anchor="middle" x="1676" y="-229.8" font-family="Times,serif" font-size="14.00" fill="#000000">CreateComponent </text>
</g>
<!-- ApplicantModule&#45;&gt;CreateComponent  -->
<g id="edge15" class="edge">
<title>ApplicantModule&#45;&gt;CreateComponent </title>
<path fill="none" stroke="#000000" stroke-dasharray="5,2" d="M1676,-187.1061C1676,-187.1061 1676,-205.991 1676,-205.991"/>
<polygon fill="#000000" stroke="#000000" points="1672.5001,-205.9909 1676,-215.991 1679.5001,-205.991 1672.5001,-205.9909"/>
</g>
<!-- ApplicantRoutingModule -->
<g id="node14" class="node">
<title>ApplicantRoutingModule</title>
<polygon fill="#8dd3c7" stroke="#000000" points="753.8752,-122 750.8752,-126 729.8752,-126 726.8752,-122 594.1248,-122 594.1248,-86 753.8752,-86 753.8752,-122"/>
<text text-anchor="middle" x="674" y="-99.8" font-family="Times,serif" font-size="14.00" fill="#000000">ApplicantRoutingModule</text>
</g>
<!-- ApplicantRoutingModule&#45;&gt;ApplicantModule -->
<g id="edge13" class="edge">
<title>ApplicantRoutingModule&#45;&gt;ApplicantModule</title>
<path fill="none" stroke="#000000" d="M674,-122.1061C674,-141.3391 674,-169 674,-169 674,-169 1608.5293,-169 1608.5293,-169"/>
<polygon fill="#000000" stroke="#000000" points="1608.5293,-172.5001 1618.5293,-169 1608.5292,-165.5001 1608.5293,-172.5001"/>
</g>
<!-- ConvocatoryModule -->
<g id="node15" class="node">
<title>ConvocatoryModule</title>
<polygon fill="#8dd3c7" stroke="#000000" points="575.8669,-122 572.8669,-126 551.8669,-126 548.8669,-122 444.1331,-122 444.1331,-86 575.8669,-86 575.8669,-122"/>
<text text-anchor="middle" x="510" y="-99.8" font-family="Times,serif" font-size="14.00" fill="#000000">ConvocatoryModule</text>
</g>
<!-- ConvocatoryModule&#45;&gt;ApplicantModule -->
<g id="edge14" class="edge">
<title>ConvocatoryModule&#45;&gt;ApplicantModule</title>
<path fill="none" stroke="#000000" d="M510,-122.0267C510,-142.7672 510,-174 510,-174 510,-174 1608.5756,-174 1608.5756,-174"/>
<polygon fill="#000000" stroke="#000000" points="1608.5756,-177.5001 1618.5756,-174 1608.5756,-170.5001 1608.5756,-177.5001"/>
</g>
<!-- ApplicantConvocatoryService -->
<g id="node17" class="node">
<title>ApplicantConvocatoryService</title>
<ellipse fill="#fdb462" stroke="#000000" cx="292" cy="-104" rx="127.9121" ry="18"/>
<text text-anchor="middle" x="292" y="-99.8" font-family="Times,serif" font-size="14.00" fill="#000000">ApplicantConvocatoryService</text>
</g>
<!-- ApplicantConvocatoryService&#45;&gt;ApplicantModule -->
<g id="edge16" class="edge">
<title>ApplicantConvocatoryService&#45;&gt;ApplicantModule</title>
<path fill="none" stroke="#000000" d="M292,-122.2921C292,-144.2057 292,-178 292,-178 292,-178 1608.7301,-178 1608.7301,-178"/>
<polygon fill="#000000" stroke="#000000" points="1608.7301,-181.5001 1618.7301,-178 1608.73,-174.5001 1608.7301,-181.5001"/>
</g>
<!-- PlaceService -->
<g id="node18" class="node">
<title>PlaceService</title>
<ellipse fill="#fdb462" stroke="#000000" cx="85" cy="-104" rx="60.8082" ry="18"/>
<text text-anchor="middle" x="85" y="-99.8" font-family="Times,serif" font-size="14.00" fill="#000000">PlaceService</text>
</g>
<!-- PlaceService&#45;&gt;ApplicantModule -->
<g id="edge17" class="edge">
<title>PlaceService&#45;&gt;ApplicantModule</title>
<path fill="none" stroke="#000000" d="M85,-122.3228C85,-145.6602 85,-183 85,-183 85,-183 1608.4355,-183 1608.4355,-183"/>
<polygon fill="#000000" stroke="#000000" points="1608.4356,-186.5001 1618.4355,-183 1608.4355,-179.5001 1608.4356,-186.5001"/>
</g>
</g>
</svg>
