<?xml version="1.0" encoding="UTF-8" standalone="no"?>
<!DOCTYPE svg PUBLIC "-//W3C//DTD SVG 1.1//EN"
 "http://www.w3.org/Graphics/SVG/1.1/DTD/svg11.dtd">
<!-- Generated by graphviz version 2.40.1 (20161225.0304)
 -->
<!-- Title: dependencies Pages: 1 -->
<svg width="717pt" height="284pt"
 viewBox="0.00 0.00 717.00 284.00" xmlns="http://www.w3.org/2000/svg" xmlns:xlink="http://www.w3.org/1999/xlink">
<g id="graph0" class="graph" transform="scale(1 1) rotate(0) translate(4 280)">
<title>dependencies</title>
<polygon fill="#ffffff" stroke="transparent" points="-4,4 -4,-280 713,-280 713,4 -4,4"/>
<text text-anchor="start" x="333.5091" y="-42.4" font-family="sans-serif" font-weight="bold" font-size="14.00" fill="#000000">Legend</text>
<polygon fill="#ffffb3" stroke="transparent" points="120.5,-10 120.5,-30 140.5,-30 140.5,-10 120.5,-10"/>
<text text-anchor="start" x="144.129" y="-15.4" font-family="sans-serif" font-size="14.00" fill="#000000"> &#160;Declarations</text>
<polygon fill="#8dd3c7" stroke="transparent" points="233.5,-10 233.5,-30 253.5,-30 253.5,-10 233.5,-10"/>
<text text-anchor="start" x="257.2251" y="-15.4" font-family="sans-serif" font-size="14.00" fill="#000000"> &#160;Module</text>
<polygon fill="#80b1d3" stroke="transparent" points="319.5,-10 319.5,-30 339.5,-30 339.5,-10 319.5,-10"/>
<text text-anchor="start" x="343.2812" y="-15.4" font-family="sans-serif" font-size="14.00" fill="#000000"> &#160;Bootstrap</text>
<polygon fill="#fdb462" stroke="transparent" points="416.5,-10 416.5,-30 436.5,-30 436.5,-10 416.5,-10"/>
<text text-anchor="start" x="440.1732" y="-15.4" font-family="sans-serif" font-size="14.00" fill="#000000"> &#160;Providers</text>
<polygon fill="#fb8072" stroke="transparent" points="512.5,-10 512.5,-30 532.5,-30 532.5,-10 512.5,-10"/>
<text text-anchor="start" x="536.2258" y="-15.4" font-family="sans-serif" font-size="14.00" fill="#000000"> &#160;Exports</text>
<g id="clust1" class="cluster">
<title>cluster_HomeModule</title>
<polygon fill="none" stroke="#000000" stroke-dasharray="1,5" points="8,-70 8,-268 701,-268 701,-70 8,-70"/>
</g>
<g id="clust2" class="cluster">
<title>cluster_HomeModule_declarations</title>
<polygon fill="none" stroke="#000000" points="415,-78 415,-130 693,-130 693,-78 415,-78"/>
</g>
<g id="clust5" class="cluster">
<title>cluster_HomeModule_imports</title>
<polygon fill="none" stroke="#000000" points="16,-78 16,-130 407,-130 407,-78 16,-78"/>
</g>
<g id="clust6" class="cluster">
<title>cluster_HomeModule_exports</title>
<polygon fill="none" stroke="#000000" points="263,-208 263,-260 411,-260 411,-208 263,-208"/>
</g>
<!-- HomeComponent -->
<g id="node1" class="node">
<title>HomeComponent</title>
<polygon fill="#ffffb3" stroke="#000000" points="684.5451,-122 569.4549,-122 569.4549,-86 684.5451,-86 684.5451,-122"/>
<text text-anchor="middle" x="627" y="-99.8" font-family="Times,serif" font-size="14.00" fill="#000000">HomeComponent</text>
</g>
<!-- HomeModule -->
<g id="node3" class="node">
<title>HomeModule</title>
<polygon fill="#8dd3c7" stroke="#000000" points="383.7619,-187 380.7619,-191 359.7619,-191 356.7619,-187 290.2381,-187 290.2381,-151 383.7619,-151 383.7619,-187"/>
<text text-anchor="middle" x="337" y="-164.8" font-family="Times,serif" font-size="14.00" fill="#000000">HomeModule</text>
</g>
<!-- HomeComponent&#45;&gt;HomeModule -->
<g id="edge1" class="edge">
<title>HomeComponent&#45;&gt;HomeModule</title>
<path fill="none" stroke="#000000" d="M627,-122.2843C627,-143.3211 627,-175 627,-175 627,-175 393.9158,-175 393.9158,-175"/>
<polygon fill="#000000" stroke="#000000" points="393.9159,-171.5001 383.9158,-175 393.9158,-178.5001 393.9159,-171.5001"/>
</g>
<!-- RegisterComponent -->
<g id="node2" class="node">
<title>RegisterComponent</title>
<polygon fill="#ffffb3" stroke="#000000" points="550.9846,-122 423.0154,-122 423.0154,-86 550.9846,-86 550.9846,-122"/>
<text text-anchor="middle" x="487" y="-99.8" font-family="Times,serif" font-size="14.00" fill="#000000">RegisterComponent</text>
</g>
<!-- RegisterComponent&#45;&gt;HomeModule -->
<g id="edge2" class="edge">
<title>RegisterComponent&#45;&gt;HomeModule</title>
<path fill="none" stroke="#000000" d="M487,-122.0225C487,-139.3734 487,-163 487,-163 487,-163 394.0494,-163 394.0494,-163"/>
<polygon fill="#000000" stroke="#000000" points="394.0494,-159.5001 384.0494,-163 394.0493,-166.5001 394.0494,-159.5001"/>
</g>
<!-- RegisterComponent  -->
<g id="node7" class="node">
<title>RegisterComponent </title>
<polygon fill="#fb8072" stroke="#000000" points="402.9855,-252 271.0145,-252 271.0145,-216 402.9855,-216 402.9855,-252"/>
<text text-anchor="middle" x="337" y="-229.8" font-family="Times,serif" font-size="14.00" fill="#000000">RegisterComponent </text>
</g>
<!-- HomeModule&#45;&gt;RegisterComponent  -->
<g id="edge6" class="edge">
<title>HomeModule&#45;&gt;RegisterComponent </title>
<path fill="none" stroke="#000000" stroke-dasharray="5,2" d="M337,-187.1061C337,-187.1061 337,-205.991 337,-205.991"/>
<polygon fill="#000000" stroke="#000000" points="333.5001,-205.9909 337,-215.991 340.5001,-205.991 333.5001,-205.9909"/>
</g>
<!-- InputFieldsModule -->
<g id="node4" class="node">
<title>InputFieldsModule</title>
<polygon fill="#8dd3c7" stroke="#000000" points="398.8244,-122 395.8244,-126 374.8244,-126 371.8244,-122 275.1756,-122 275.1756,-86 398.8244,-86 398.8244,-122"/>
<text text-anchor="middle" x="337" y="-99.8" font-family="Times,serif" font-size="14.00" fill="#000000">InputFieldsModule</text>
</g>
<!-- InputFieldsModule&#45;&gt;HomeModule -->
<g id="edge3" class="edge">
<title>InputFieldsModule&#45;&gt;HomeModule</title>
<path fill="none" stroke="#000000" d="M337,-122.1061C337,-122.1061 337,-140.991 337,-140.991"/>
<polygon fill="#000000" stroke="#000000" points="333.5001,-140.9909 337,-150.991 340.5001,-140.991 333.5001,-140.9909"/>
</g>
<!-- ApplicantModule -->
<g id="node5" class="node">
<title>ApplicantModule</title>
<polygon fill="#8dd3c7" stroke="#000000" points="257.2577,-122 254.2577,-126 233.2577,-126 230.2577,-122 142.7423,-122 142.7423,-86 257.2577,-86 257.2577,-122"/>
<text text-anchor="middle" x="200" y="-99.8" font-family="Times,serif" font-size="14.00" fill="#000000">ApplicantModule</text>
</g>
<!-- ApplicantModule&#45;&gt;HomeModule -->
<g id="edge4" class="edge">
<title>ApplicantModule&#45;&gt;HomeModule</title>
<path fill="none" stroke="#000000" d="M200,-122.0225C200,-139.3734 200,-163 200,-163 200,-163 280.2355,-163 280.2355,-163"/>
<polygon fill="#000000" stroke="#000000" points="280.2356,-166.5001 290.2355,-163 280.2355,-159.5001 280.2356,-166.5001"/>
</g>
<!-- OffererModule -->
<g id="node6" class="node">
<title>OffererModule</title>
<polygon fill="#8dd3c7" stroke="#000000" points="124.2284,-122 121.2284,-126 100.2284,-126 97.2284,-122 23.7716,-122 23.7716,-86 124.2284,-86 124.2284,-122"/>
<text text-anchor="middle" x="74" y="-99.8" font-family="Times,serif" font-size="14.00" fill="#000000">OffererModule</text>
</g>
<!-- OffererModule&#45;&gt;HomeModule -->
<g id="edge5" class="edge">
<title>OffererModule&#45;&gt;HomeModule</title>
<path fill="none" stroke="#000000" d="M74,-122.2843C74,-143.3211 74,-175 74,-175 74,-175 279.9809,-175 279.9809,-175"/>
<polygon fill="#000000" stroke="#000000" points="279.9809,-178.5001 289.9809,-175 279.9808,-171.5001 279.9809,-178.5001"/>
</g>
</g>
</svg>
