<?xml version="1.0" encoding="UTF-8" standalone="no"?>
<!DOCTYPE svg PUBLIC "-//W3C//DTD SVG 1.1//EN"
 "http://www.w3.org/Graphics/SVG/1.1/DTD/svg11.dtd">
<!-- Generated by graphviz version 2.40.1 (20161225.0304)
 -->
<!-- Title: dependencies Pages: 1 -->
<svg width="1389pt" height="284pt"
 viewBox="0.00 0.00 1389.00 284.00" xmlns="http://www.w3.org/2000/svg" xmlns:xlink="http://www.w3.org/1999/xlink">
<g id="graph0" class="graph" transform="scale(1 1) rotate(0) translate(4 280)">
<title>dependencies</title>
<polygon fill="#ffffff" stroke="transparent" points="-4,4 -4,-280 1385,-280 1385,4 -4,4"/>
<text text-anchor="start" x="669.5091" y="-42.4" font-family="sans-serif" font-weight="bold" font-size="14.00" fill="#000000">Legend</text>
<polygon fill="#ffffb3" stroke="transparent" points="456.5,-10 456.5,-30 476.5,-30 476.5,-10 456.5,-10"/>
<text text-anchor="start" x="480.129" y="-15.4" font-family="sans-serif" font-size="14.00" fill="#000000"> &#160;Declarations</text>
<polygon fill="#8dd3c7" stroke="transparent" points="569.5,-10 569.5,-30 589.5,-30 589.5,-10 569.5,-10"/>
<text text-anchor="start" x="593.2251" y="-15.4" font-family="sans-serif" font-size="14.00" fill="#000000"> &#160;Module</text>
<polygon fill="#80b1d3" stroke="transparent" points="655.5,-10 655.5,-30 675.5,-30 675.5,-10 655.5,-10"/>
<text text-anchor="start" x="679.2812" y="-15.4" font-family="sans-serif" font-size="14.00" fill="#000000"> &#160;Bootstrap</text>
<polygon fill="#fdb462" stroke="transparent" points="752.5,-10 752.5,-30 772.5,-30 772.5,-10 752.5,-10"/>
<text text-anchor="start" x="776.1732" y="-15.4" font-family="sans-serif" font-size="14.00" fill="#000000"> &#160;Providers</text>
<polygon fill="#fb8072" stroke="transparent" points="848.5,-10 848.5,-30 868.5,-30 868.5,-10 848.5,-10"/>
<text text-anchor="start" x="872.2258" y="-15.4" font-family="sans-serif" font-size="14.00" fill="#000000"> &#160;Exports</text>
<g id="clust1" class="cluster">
<title>cluster_AppModule</title>
<polygon fill="none" stroke="#000000" stroke-dasharray="1,5" points="8,-70 8,-268 1373,-268 1373,-70 8,-70"/>
</g>
<g id="clust2" class="cluster">
<title>cluster_AppModule_declarations</title>
<polygon fill="none" stroke="#000000" points="1243,-78 1243,-130 1365,-130 1365,-78 1243,-78"/>
</g>
<g id="clust4" class="cluster">
<title>cluster_AppModule_imports</title>
<polygon fill="none" stroke="#000000" points="156,-78 156,-130 1235,-130 1235,-78 156,-78"/>
</g>
<g id="clust6" class="cluster">
<title>cluster_AppModule_bootstrap</title>
<polygon fill="none" stroke="#000000" points="651,-208 651,-260 775,-260 775,-208 651,-208"/>
</g>
<g id="clust7" class="cluster">
<title>cluster_AppModule_providers</title>
<polygon fill="none" stroke="#000000" points="16,-78 16,-130 148,-130 148,-78 16,-78"/>
</g>
<!-- AppComponent -->
<g id="node1" class="node">
<title>AppComponent</title>
<polygon fill="#ffffb3" stroke="#000000" points="1356.9399,-122 1251.0601,-122 1251.0601,-86 1356.9399,-86 1356.9399,-122"/>
<text text-anchor="middle" x="1304" y="-99.8" font-family="Times,serif" font-size="14.00" fill="#000000">AppComponent</text>
</g>
<!-- AppModule -->
<g id="node2" class="node">
<title>AppModule</title>
<polygon fill="#8dd3c7" stroke="#000000" points="754.6571,-187 751.6571,-191 730.6571,-191 727.6571,-187 671.3429,-187 671.3429,-151 754.6571,-151 754.6571,-187"/>
<text text-anchor="middle" x="713" y="-164.8" font-family="Times,serif" font-size="14.00" fill="#000000">AppModule</text>
</g>
<!-- AppComponent&#45;&gt;AppModule -->
<g id="edge1" class="edge">
<title>AppComponent&#45;&gt;AppModule</title>
<path fill="none" stroke="#000000" d="M1304,-122.0109C1304,-144.4852 1304,-180 1304,-180 1304,-180 765.0295,-180 765.0295,-180"/>
<polygon fill="#000000" stroke="#000000" points="765.0295,-176.5001 755.0295,-180 765.0294,-183.5001 765.0295,-176.5001"/>
</g>
<!-- AppComponent  -->
<g id="node11" class="node">
<title>AppComponent </title>
<polygon fill="#80b1d3" stroke="#000000" points="767.439,-252 658.561,-252 658.561,-216 767.439,-216 767.439,-252"/>
<text text-anchor="middle" x="713" y="-229.8" font-family="Times,serif" font-size="14.00" fill="#000000">AppComponent </text>
</g>
<!-- AppModule&#45;&gt;AppComponent  -->
<g id="edge10" class="edge">
<title>AppModule&#45;&gt;AppComponent </title>
<path fill="none" stroke="#000000" stroke-dasharray="1,5" d="M713,-187.1061C713,-187.1061 713,-205.991 713,-205.991"/>
<polygon fill="#000000" stroke="#000000" points="709.5001,-205.9909 713,-215.991 716.5001,-205.991 709.5001,-205.9909"/>
</g>
<!-- HomeModule -->
<g id="node3" class="node">
<title>HomeModule</title>
<polygon fill="#8dd3c7" stroke="#000000" points="1226.7619,-122 1223.7619,-126 1202.7619,-126 1199.7619,-122 1133.2381,-122 1133.2381,-86 1226.7619,-86 1226.7619,-122"/>
<text text-anchor="middle" x="1180" y="-99.8" font-family="Times,serif" font-size="14.00" fill="#000000">HomeModule</text>
</g>
<!-- HomeModule&#45;&gt;AppModule -->
<g id="edge2" class="edge">
<title>HomeModule&#45;&gt;AppModule</title>
<path fill="none" stroke="#000000" d="M1180,-122.1289C1180,-142.5724 1180,-173 1180,-173 1180,-173 764.8541,-173 764.8541,-173"/>
<polygon fill="#000000" stroke="#000000" points="764.8542,-169.5001 754.8541,-173 764.8541,-176.5001 764.8542,-169.5001"/>
</g>
<!-- ApplicantModule -->
<g id="node4" class="node">
<title>ApplicantModule</title>
<polygon fill="#8dd3c7" stroke="#000000" points="1115.2577,-122 1112.2577,-126 1091.2577,-126 1088.2577,-122 1000.7423,-122 1000.7423,-86 1115.2577,-86 1115.2577,-122"/>
<text text-anchor="middle" x="1058" y="-99.8" font-family="Times,serif" font-size="14.00" fill="#000000">ApplicantModule</text>
</g>
<!-- ApplicantModule&#45;&gt;AppModule -->
<g id="edge3" class="edge">
<title>ApplicantModule&#45;&gt;AppModule</title>
<path fill="none" stroke="#000000" d="M1058,-122.2667C1058,-140.5552 1058,-166 1058,-166 1058,-166 764.9589,-166 764.9589,-166"/>
<polygon fill="#000000" stroke="#000000" points="764.9589,-162.5001 754.9589,-166 764.9588,-169.5001 764.9589,-162.5001"/>
</g>
<!-- AdministratorModule -->
<g id="node5" class="node">
<title>AdministratorModule</title>
<polygon fill="#8dd3c7" stroke="#000000" points="983.0898,-122 980.0898,-126 959.0898,-126 956.0898,-122 844.9102,-122 844.9102,-86 983.0898,-86 983.0898,-122"/>
<text text-anchor="middle" x="914" y="-99.8" font-family="Times,serif" font-size="14.00" fill="#000000">AdministratorModule</text>
</g>
<!-- AdministratorModule&#45;&gt;AppModule -->
<g id="edge4" class="edge">
<title>AdministratorModule&#45;&gt;AppModule</title>
<path fill="none" stroke="#000000" d="M914,-122.0091C914,-138.0494 914,-159 914,-159 914,-159 765.1362,-159 765.1362,-159"/>
<polygon fill="#000000" stroke="#000000" points="765.1362,-155.5001 755.1362,-159 765.1362,-162.5001 765.1362,-155.5001"/>
</g>
<!-- SecurityModule -->
<g id="node6" class="node">
<title>SecurityModule</title>
<polygon fill="#8dd3c7" stroke="#000000" points="827.2036,-122 824.2036,-126 803.2036,-126 800.2036,-122 720.7964,-122 720.7964,-86 827.2036,-86 827.2036,-122"/>
<text text-anchor="middle" x="774" y="-99.8" font-family="Times,serif" font-size="14.00" fill="#000000">SecurityModule</text>
</g>
<!-- SecurityModule&#45;&gt;AppModule -->
<g id="edge5" class="edge">
<title>SecurityModule&#45;&gt;AppModule</title>
<path fill="none" stroke="#000000" d="M737.8633,-122.1061C737.8633,-122.1061 737.8633,-140.991 737.8633,-140.991"/>
<polygon fill="#000000" stroke="#000000" points="734.3633,-140.9909 737.8633,-150.991 741.3633,-140.991 734.3633,-140.9909"/>
</g>
<!-- OffererModule -->
<g id="node7" class="node">
<title>OffererModule</title>
<polygon fill="#8dd3c7" stroke="#000000" points="703.2284,-122 700.2284,-126 679.2284,-126 676.2284,-122 602.7716,-122 602.7716,-86 703.2284,-86 703.2284,-122"/>
<text text-anchor="middle" x="653" y="-99.8" font-family="Times,serif" font-size="14.00" fill="#000000">OffererModule</text>
</g>
<!-- OffererModule&#45;&gt;AppModule -->
<g id="edge6" class="edge">
<title>OffererModule&#45;&gt;AppModule</title>
<path fill="none" stroke="#000000" d="M687.2679,-122.1061C687.2679,-122.1061 687.2679,-140.991 687.2679,-140.991"/>
<polygon fill="#000000" stroke="#000000" points="683.768,-140.9909 687.2679,-150.991 690.768,-140.991 683.768,-140.9909"/>
</g>
<!-- AppRoutingModule -->
<g id="node8" class="node">
<title>AppRoutingModule</title>
<polygon fill="#8dd3c7" stroke="#000000" points="584.2744,-122 581.2744,-126 560.2744,-126 557.2744,-122 455.7256,-122 455.7256,-86 584.2744,-86 584.2744,-122"/>
<text text-anchor="middle" x="520" y="-99.8" font-family="Times,serif" font-size="14.00" fill="#000000">AppRoutingModule</text>
</g>
<!-- AppRoutingModule&#45;&gt;AppModule -->
<g id="edge7" class="edge">
<title>AppRoutingModule&#45;&gt;AppModule</title>
<path fill="none" stroke="#000000" d="M520,-122.0091C520,-138.0494 520,-159 520,-159 520,-159 661.1219,-159 661.1219,-159"/>
<polygon fill="#000000" stroke="#000000" points="661.1219,-162.5001 671.1219,-159 661.1218,-155.5001 661.1219,-162.5001"/>
</g>
<!-- InputFieldsModule -->
<g id="node9" class="node">
<title>InputFieldsModule</title>
<polygon fill="#8dd3c7" stroke="#000000" points="437.8244,-122 434.8244,-126 413.8244,-126 410.8244,-122 314.1756,-122 314.1756,-86 437.8244,-86 437.8244,-122"/>
<text text-anchor="middle" x="376" y="-99.8" font-family="Times,serif" font-size="14.00" fill="#000000">InputFieldsModule</text>
</g>
<!-- InputFieldsModule&#45;&gt;AppModule -->
<g id="edge8" class="edge">
<title>InputFieldsModule&#45;&gt;AppModule</title>
<path fill="none" stroke="#000000" d="M376,-122.2667C376,-140.5552 376,-166 376,-166 376,-166 661.3392,-166 661.3392,-166"/>
<polygon fill="#000000" stroke="#000000" points="661.3392,-169.5001 671.3392,-166 661.3392,-162.5001 661.3392,-169.5001"/>
</g>
<!-- ConvocatoryModule -->
<g id="node10" class="node">
<title>ConvocatoryModule</title>
<polygon fill="#8dd3c7" stroke="#000000" points="295.8669,-122 292.8669,-126 271.8669,-126 268.8669,-122 164.1331,-122 164.1331,-86 295.8669,-86 295.8669,-122"/>
<text text-anchor="middle" x="230" y="-99.8" font-family="Times,serif" font-size="14.00" fill="#000000">ConvocatoryModule</text>
</g>
<!-- ConvocatoryModule&#45;&gt;AppModule -->
<g id="edge9" class="edge">
<title>ConvocatoryModule&#45;&gt;AppModule</title>
<path fill="none" stroke="#000000" d="M230,-122.1289C230,-142.5724 230,-173 230,-173 230,-173 660.9819,-173 660.9819,-173"/>
<polygon fill="#000000" stroke="#000000" points="660.9819,-176.5001 670.9819,-173 660.9818,-169.5001 660.9819,-176.5001"/>
</g>
<!-- UserService -->
<g id="node12" class="node">
<title>UserService</title>
<ellipse fill="#fdb462" stroke="#000000" cx="82" cy="-104" rx="58.4415" ry="18"/>
<text text-anchor="middle" x="82" y="-99.8" font-family="Times,serif" font-size="14.00" fill="#000000">UserService</text>
</g>
<!-- UserService&#45;&gt;AppModule -->
<g id="edge11" class="edge">
<title>UserService&#45;&gt;AppModule</title>
<path fill="none" stroke="#000000" d="M82,-122.0109C82,-144.4852 82,-180 82,-180 82,-180 661.1097,-180 661.1097,-180"/>
<polygon fill="#000000" stroke="#000000" points="661.1097,-183.5001 671.1097,-180 661.1096,-176.5001 661.1097,-183.5001"/>
</g>
</g>
</svg>
