<?xml version="1.0" encoding="UTF-8" standalone="no"?>
<!DOCTYPE svg PUBLIC "-//W3C//DTD SVG 1.1//EN"
 "http://www.w3.org/Graphics/SVG/1.1/DTD/svg11.dtd">
<!-- Generated by graphviz version 2.40.1 (20161225.0304)
 -->
<!-- Title: dependencies Pages: 1 -->
<svg width="796pt" height="211pt"
 viewBox="0.00 0.00 796.00 211.00" xmlns="http://www.w3.org/2000/svg" xmlns:xlink="http://www.w3.org/1999/xlink">
<g id="graph0" class="graph" transform="scale(1 1) rotate(0) translate(4 207)">
<title>dependencies</title>
<polygon fill="#ffffff" stroke="transparent" points="-4,4 -4,-207 792,-207 792,4 -4,4"/>
<text text-anchor="start" x="373.0091" y="-42.4" font-family="sans-serif" font-weight="bold" font-size="14.00" fill="#000000">Legend</text>
<polygon fill="#ffffb3" stroke="transparent" points="160,-10 160,-30 180,-30 180,-10 160,-10"/>
<text text-anchor="start" x="183.629" y="-15.4" font-family="sans-serif" font-size="14.00" fill="#000000"> &#160;Declarations</text>
<polygon fill="#8dd3c7" stroke="transparent" points="273,-10 273,-30 293,-30 293,-10 273,-10"/>
<text text-anchor="start" x="296.7251" y="-15.4" font-family="sans-serif" font-size="14.00" fill="#000000"> &#160;Module</text>
<polygon fill="#80b1d3" stroke="transparent" points="359,-10 359,-30 379,-30 379,-10 359,-10"/>
<text text-anchor="start" x="382.7812" y="-15.4" font-family="sans-serif" font-size="14.00" fill="#000000"> &#160;Bootstrap</text>
<polygon fill="#fdb462" stroke="transparent" points="456,-10 456,-30 476,-30 476,-10 456,-10"/>
<text text-anchor="start" x="479.6732" y="-15.4" font-family="sans-serif" font-size="14.00" fill="#000000"> &#160;Providers</text>
<polygon fill="#fb8072" stroke="transparent" points="552,-10 552,-30 572,-30 572,-10 552,-10"/>
<text text-anchor="start" x="575.7258" y="-15.4" font-family="sans-serif" font-size="14.00" fill="#000000"> &#160;Exports</text>
<g id="clust1" class="cluster">
<title>cluster_AdministratorModule</title>
<polygon fill="none" stroke="#000000" stroke-dasharray="1,5" points="8,-70 8,-195 780,-195 780,-70 8,-70"/>
</g>
<g id="clust2" class="cluster">
<title>cluster_AdministratorModule_declarations</title>
<polygon fill="none" stroke="#000000" points="16,-78 16,-130 772,-130 772,-78 16,-78"/>
</g>
<!-- AdministratorComponent -->
<g id="node1" class="node">
<title>AdministratorComponent</title>
<polygon fill="#ffffb3" stroke="#000000" points="763.8725,-122 604.1275,-122 604.1275,-86 763.8725,-86 763.8725,-122"/>
<text text-anchor="middle" x="684" y="-99.8" font-family="Times,serif" font-size="14.00" fill="#000000">AdministratorComponent</text>
</g>
<!-- AdministratorModule -->
<g id="node5" class="node">
<title>AdministratorModule</title>
<polygon fill="#8dd3c7" stroke="#000000" points="464.0898,-187 461.0898,-191 440.0898,-191 437.0898,-187 325.9102,-187 325.9102,-151 464.0898,-151 464.0898,-187"/>
<text text-anchor="middle" x="395" y="-164.8" font-family="Times,serif" font-size="14.00" fill="#000000">AdministratorModule</text>
</g>
<!-- AdministratorComponent&#45;&gt;AdministratorModule -->
<g id="edge1" class="edge">
<title>AdministratorComponent&#45;&gt;AdministratorModule</title>
<path fill="none" stroke="#000000" d="M684,-122.1061C684,-141.3391 684,-169 684,-169 684,-169 474.2227,-169 474.2227,-169"/>
<polygon fill="#000000" stroke="#000000" points="474.2227,-165.5001 464.2227,-169 474.2227,-172.5001 474.2227,-165.5001"/>
</g>
<!-- OfferersApprovedComponent -->
<g id="node2" class="node">
<title>OfferersApprovedComponent</title>
<polygon fill="#ffffb3" stroke="#000000" points="585.937,-122 402.063,-122 402.063,-86 585.937,-86 585.937,-122"/>
<text text-anchor="middle" x="494" y="-99.8" font-family="Times,serif" font-size="14.00" fill="#000000">OfferersApprovedComponent</text>
</g>
<!-- OfferersApprovedComponent&#45;&gt;AdministratorModule -->
<g id="edge2" class="edge">
<title>OfferersApprovedComponent&#45;&gt;AdministratorModule</title>
<path fill="none" stroke="#000000" d="M433.0382,-122.1061C433.0382,-122.1061 433.0382,-140.991 433.0382,-140.991"/>
<polygon fill="#000000" stroke="#000000" points="429.5383,-140.9909 433.0382,-150.991 436.5383,-140.991 429.5383,-140.9909"/>
</g>
<!-- OfferersPendingComponent -->
<g id="node3" class="node">
<title>OfferersPendingComponent</title>
<polygon fill="#ffffb3" stroke="#000000" points="383.8431,-122 210.1569,-122 210.1569,-86 383.8431,-86 383.8431,-122"/>
<text text-anchor="middle" x="297" y="-99.8" font-family="Times,serif" font-size="14.00" fill="#000000">OfferersPendingComponent</text>
</g>
<!-- OfferersPendingComponent&#45;&gt;AdministratorModule -->
<g id="edge3" class="edge">
<title>OfferersPendingComponent&#45;&gt;AdministratorModule</title>
<path fill="none" stroke="#000000" d="M354.9383,-122.1061C354.9383,-122.1061 354.9383,-140.991 354.9383,-140.991"/>
<polygon fill="#000000" stroke="#000000" points="351.4384,-140.9909 354.9383,-150.991 358.4384,-140.991 351.4384,-140.9909"/>
</g>
<!-- OfferersDeniedComponent -->
<g id="node4" class="node">
<title>OfferersDeniedComponent</title>
<polygon fill="#ffffb3" stroke="#000000" points="192.382,-122 23.618,-122 23.618,-86 192.382,-86 192.382,-122"/>
<text text-anchor="middle" x="108" y="-99.8" font-family="Times,serif" font-size="14.00" fill="#000000">OfferersDeniedComponent</text>
</g>
<!-- OfferersDeniedComponent&#45;&gt;AdministratorModule -->
<g id="edge4" class="edge">
<title>OfferersDeniedComponent&#45;&gt;AdministratorModule</title>
<path fill="none" stroke="#000000" d="M108,-122.1061C108,-141.3391 108,-169 108,-169 108,-169 315.8911,-169 315.8911,-169"/>
<polygon fill="#000000" stroke="#000000" points="315.8912,-172.5001 325.8911,-169 315.8911,-165.5001 315.8912,-172.5001"/>
</g>
</g>
</svg>
